<svg width="63" height="66" viewBox="0 0 63 66" fill="none" xmlns="http://www.w3.org/2000/svg">
<circle cx="31.1321" cy="31.1321" r="31.1321" fill="#389583"/>
<path d="M31.1321 0C35.2204 4.87528e-08 39.2687 0.805255 43.0458 2.36979C46.8229 3.93432 50.2549 6.22749 53.1458 9.11838C56.0367 12.0093 58.3298 15.4412 59.8944 19.2184C61.4589 22.9955 62.2642 27.0438 62.2642 31.1321C62.2642 35.2204 61.4589 39.2687 59.8944 43.0458C58.3298 46.8229 56.0367 50.2549 53.1458 53.1458C50.2549 56.0367 46.8229 58.3298 43.0458 59.8944C39.2687 61.4589 35.2204 62.2642 31.1321 62.2642L31.1321 31.1321L31.1321 0Z" fill="#8DE4AF"/>
<rect y="30.8828" width="62.2642" height="35.117" rx="3" fill="#8DE4AF"/>
<path d="M0 33.8828C0 32.226 1.34315 30.8828 3 30.8828H31.1321V65.9998H3C1.34314 65.9998 0 64.6566 0 62.9998V33.8828Z" fill="#389583"/>
<path fill-rule="evenodd" clip-rule="evenodd" d="M31.1721 39.094C38.1885 39.094 43.8761 33.3957 43.8761 26.3663C43.8761 19.3369 38.1885 13.6387 31.1721 13.6387C24.1558 13.6387 18.4681 19.3369 18.4681 26.3663C18.4681 33.3957 24.1558 39.094 31.1721 39.094ZM31.1721 34.8514C35.8496 34.8514 39.6414 31.0524 39.6414 26.3663C39.6414 21.68 35.8496 17.8811 31.1721 17.8811C26.4945 17.8811 22.7027 21.68 22.7027 26.3663C22.7027 31.0524 26.4945 34.8514 31.1721 34.8514Z" fill="#05396B"/>
<path d="M33.1266 33.2182C35.8252 33.2182 38.0128 31.0266 38.0128 28.323C38.0128 25.6194 35.8252 23.4277 33.1266 23.4277C30.4281 23.4277 28.2405 25.6194 28.2405 28.323C28.2405 31.0266 30.4281 33.2182 33.1266 33.2182Z" fill="#05396B"/>
<path d="M34.1039 29.3029C35.1833 29.3029 36.0583 28.4263 36.0583 27.3448C36.0583 26.2634 35.1833 25.3867 34.1039 25.3867C33.0245 25.3867 32.1494 26.2634 32.1494 27.3448C32.1494 28.4263 33.0245 29.3029 34.1039 29.3029Z" fill="white"/>
<rect x="10.4603" y="46.0762" width="41.3434" height="10.2113" rx="5.10566" fill="#05396B"/>
<path d="M18.3447 49.377L16.4981 46.1315L20.2321 46.155L18.3447 49.377Z" fill="white"/>
<path d="M25.8163 49.4044L23.9697 46.1588L27.7038 46.1824L25.8163 49.4044Z" fill="white"/>
<path d="M22.0805 49.4044L20.2339 46.1588L23.9679 46.1824L22.0805 49.4044Z" fill="white"/>
</svg>
