<svg width="16" height="16" viewBox="0 0 16 16" fill="none" xmlns="http://www.w3.org/2000/svg">
<path d="M3.66661 9.99908C4.25001 9.99577 4.81113 9.77465 5.23995 9.37908L9.41328 11.7657C9.36012 11.9499 9.33319 12.1407 9.33328 12.3324C9.329 12.8734 9.51127 13.3994 9.8494 13.8218C10.1875 14.2442 10.6609 14.5371 11.1897 14.6513C11.7186 14.7656 12.2706 14.6941 12.7529 14.4489C13.2353 14.2037 13.6183 13.7998 13.8377 13.3053C14.0571 12.8107 14.0994 12.2556 13.9574 11.7335C13.8154 11.2115 13.4979 10.7542 13.0583 10.4389C12.6187 10.1235 12.0838 9.96922 11.5438 10.002C11.0037 10.0349 10.4915 10.2528 10.0933 10.6191L5.91995 8.23241C5.97031 8.06812 5.99724 7.89755 5.99995 7.72574L10.0999 5.37908C10.496 5.73697 11.003 5.9478 11.5361 5.97621C12.0691 6.00462 12.5957 5.84888 13.0276 5.53511C13.4594 5.22134 13.7702 4.76863 13.9079 4.25289C14.0455 3.73715 14.0017 3.18977 13.7837 2.70253C13.5656 2.21529 13.1867 1.81784 12.7104 1.57683C12.2341 1.33582 11.6894 1.26591 11.1677 1.37883C10.646 1.49174 10.179 1.78062 9.84499 2.197C9.51099 2.61339 9.33032 3.13196 9.33328 3.66574C9.33553 3.85728 9.36242 4.04773 9.41328 4.23241L5.61995 6.39908C5.40015 6.05905 5.09566 5.78206 4.7364 5.59535C4.37714 5.40863 3.97548 5.31861 3.5709 5.33413C3.16631 5.34966 2.77273 5.47019 2.42883 5.68389C2.08494 5.89758 1.80257 6.19709 1.60947 6.55296C1.41638 6.90883 1.31921 7.30882 1.32752 7.71362C1.33582 8.11841 1.44932 8.51408 1.65685 8.86174C1.86437 9.20939 2.15879 9.49706 2.51116 9.69646C2.86354 9.89587 3.26173 10.0002 3.66661 9.99908V9.99908ZM11.6666 11.3324C11.8644 11.3324 12.0577 11.3911 12.2222 11.5009C12.3866 11.6108 12.5148 11.767 12.5905 11.9497C12.6662 12.1325 12.686 12.3335 12.6474 12.5275C12.6088 12.7215 12.5136 12.8997 12.3737 13.0395C12.2339 13.1794 12.0557 13.2746 11.8617 13.3132C11.6677 13.3518 11.4667 13.332 11.2839 13.2563C11.1012 13.1806 10.945 13.0524 10.8351 12.888C10.7253 12.7235 10.6666 12.5302 10.6666 12.3324C10.6666 12.0672 10.772 11.8128 10.9595 11.6253C11.147 11.4378 11.4014 11.3324 11.6666 11.3324ZM11.6666 2.66574C11.8644 2.66574 12.0577 2.72439 12.2222 2.83427C12.3866 2.94416 12.5148 3.10033 12.5905 3.28306C12.6662 3.46579 12.686 3.66685 12.6474 3.86083C12.6088 4.05481 12.5136 4.233 12.3737 4.37285C12.2339 4.5127 12.0557 4.60794 11.8617 4.64653C11.6677 4.68511 11.4667 4.66531 11.2839 4.58962C11.1012 4.51394 10.945 4.38576 10.8351 4.22131C10.7253 4.05686 10.6666 3.86353 10.6666 3.66574C10.6666 3.40053 10.772 3.14617 10.9595 2.95864C11.147 2.7711 11.4014 2.66574 11.6666 2.66574ZM3.66661 6.66574C3.86439 6.66574 4.05773 6.72439 4.22218 6.83427C4.38663 6.94415 4.5148 7.10033 4.59049 7.28306C4.66618 7.46579 4.68598 7.66685 4.6474 7.86083C4.60881 8.05481 4.51357 8.233 4.37372 8.37285C4.23387 8.5127 4.05568 8.60794 3.8617 8.64653C3.66772 8.68511 3.46666 8.66531 3.28393 8.58962C3.1012 8.51394 2.94502 8.38576 2.83514 8.22131C2.72526 8.05686 2.66661 7.86352 2.66661 7.66574C2.66661 7.40053 2.77197 7.14617 2.95951 6.95864C3.14704 6.7711 3.4014 6.66574 3.66661 6.66574V6.66574Z" fill="#DEF2E9"/>
</svg>
