<svg width="16" height="16" viewBox="0 0 16 16" fill="none" xmlns="http://www.w3.org/2000/svg">
<path d="M9.21342 14.6673H6.78675C6.63471 14.6673 6.48722 14.6154 6.36875 14.5201C6.25029 14.4248 6.16796 14.2918 6.13542 14.1433L5.86408 12.8873C5.50212 12.7287 5.15891 12.5304 4.84075 12.296L3.61609 12.686C3.47113 12.7322 3.31472 12.7275 3.17283 12.6725C3.03095 12.6176 2.91212 12.5158 2.83609 12.384L1.62009 10.2833C1.54485 10.1514 1.51661 9.99787 1.53998 9.84782C1.56335 9.69777 1.63696 9.56009 1.74875 9.45732L2.69875 8.59065C2.65555 8.19806 2.65555 7.80191 2.69875 7.40932L1.74875 6.54465C1.6368 6.44183 1.5631 6.30403 1.53972 6.15384C1.51634 6.00365 1.54468 5.84996 1.62009 5.71798L2.83342 3.61598C2.90945 3.48419 3.02828 3.38238 3.17017 3.32744C3.31205 3.27251 3.46846 3.26776 3.61342 3.31398L4.83809 3.70398C5.00075 3.58398 5.17009 3.47198 5.34475 3.37065C5.51342 3.27598 5.68675 3.18998 5.86408 3.11332L6.13609 1.85865C6.16847 1.71012 6.25064 1.57711 6.36898 1.48168C6.48733 1.38626 6.63473 1.33414 6.78675 1.33398H9.21342C9.36544 1.33414 9.51285 1.38626 9.63119 1.48168C9.74953 1.57711 9.8317 1.71012 9.86409 1.85865L10.1388 3.11398C10.3254 3.19665 10.5081 3.28932 10.6848 3.39265C10.8494 3.48798 11.0088 3.59265 11.1621 3.70532L12.3874 3.31532C12.5323 3.26926 12.6885 3.2741 12.8303 3.32903C12.972 3.38395 13.0907 3.48567 13.1668 3.61732L14.3801 5.71932C14.5348 5.99065 14.4814 6.33398 14.2514 6.54532L13.3014 7.41198C13.3446 7.80458 13.3446 8.20073 13.3014 8.59332L14.2514 9.45998C14.4814 9.67198 14.5348 10.0147 14.3801 10.286L13.1668 12.388C13.0907 12.5198 12.9719 12.6216 12.83 12.6765C12.6881 12.7315 12.5317 12.7362 12.3868 12.69L11.1621 12.3C10.8442 12.5342 10.5012 12.7323 10.1394 12.8907L9.86409 14.1433C9.83157 14.2917 9.74934 14.4246 9.63101 14.5199C9.51268 14.6152 9.36535 14.6672 9.21342 14.6673ZM7.99742 5.33398C7.29017 5.33398 6.6119 5.61494 6.1118 6.11503C5.6117 6.61513 5.33075 7.29341 5.33075 8.00065C5.33075 8.7079 5.6117 9.38617 6.1118 9.88627C6.6119 10.3864 7.29017 10.6673 7.99742 10.6673C8.70466 10.6673 9.38294 10.3864 9.88304 9.88627C10.3831 9.38617 10.6641 8.7079 10.6641 8.00065C10.6641 7.29341 10.3831 6.61513 9.88304 6.11503C9.38294 5.61494 8.70466 5.33398 7.99742 5.33398Z" fill="white"/>
</svg>
