<svg width="16" height="16" viewBox="0 0 16 16" fill="none" xmlns="http://www.w3.org/2000/svg">
<path d="M13.3333 7.00065C13.3333 6.26532 12.7353 5.66732 12 5.66732H11.3333V3.66732C11.3333 1.82932 9.83796 0.333984 7.99996 0.333984C6.16196 0.333984 4.66663 1.82932 4.66663 3.66732V5.66732H3.99996C3.26463 5.66732 2.66663 6.26532 2.66663 7.00065V12.334C2.66663 13.0693 3.26463 13.6673 3.99996 13.6673H12C12.7353 13.6673 13.3333 13.0693 13.3333 12.334V7.00065ZM5.99996 3.66732C5.99996 2.56465 6.89729 1.66732 7.99996 1.66732C9.10263 1.66732 9.99996 2.56465 9.99996 3.66732V5.66732H5.99996V3.66732Z" fill="#E5E5E5"/>
</svg>
