<svg width="926" height="228" viewBox="0 0 926 228" fill="none" xmlns="http://www.w3.org/2000/svg">
<path d="M53.6139 173.344C51.1027 173.344 48.6543 172.526 46.2686 170.891C44.8875 170.387 43.5691 169.758 42.3135 169.004L37.4167 166.173C32.3943 163.28 28.6276 160.576 26.1164 158.06C23.9819 155.292 22.6635 152.588 22.1613 149.946C21.659 147.179 21.3451 143.153 21.2196 137.87V134.096C21.094 130.448 21.0312 121.957 21.0312 108.623C21.0312 103.214 21.094 99.1256 21.2196 96.3581H17.6411C14.5021 96.3581 11.7398 95.2889 9.35421 93.1504C7.09415 90.8861 5.96411 88.0558 5.96411 84.6594C5.96411 81.1372 7.15692 78.2439 9.54255 75.9796C11.9282 73.5896 14.6905 72.3945 17.8295 72.3945H21.2196L21.4079 64.2809V58.4315C21.5335 54.4061 22.8518 51.3242 25.363 49.1857C27.9998 46.9214 31.0132 45.7893 34.4033 45.7893C37.919 45.7893 40.9952 46.9843 43.6319 49.3744C46.3942 51.7645 47.7754 55.0351 47.7754 59.1863L47.3987 72.0172H54.3672C58.8874 72.0172 62.2775 73.2122 64.5375 75.6023C66.7976 77.9923 67.9276 81.0114 67.9276 84.6594C67.9276 88.1816 66.7348 91.2006 64.3492 93.7165C61.9636 96.1066 58.4479 97.3016 53.8022 97.3016H46.8337C46.8337 102.459 46.7709 106.296 46.6453 108.812C46.5198 111.453 46.457 115.227 46.457 120.133C46.457 128.184 46.7081 135.165 47.2103 141.078C47.7126 141.581 48.0265 141.832 48.152 141.832L50.0354 143.153L51.5421 143.908L53.2372 144.851L54.7439 145.606C57.004 146.612 58.9501 147.745 60.5824 149.003C64.4747 151.644 66.4209 155.166 66.4209 159.569C66.4209 163.091 65.1653 166.299 62.6541 169.192C60.143 171.96 57.1295 173.344 53.6139 173.344ZM99.8205 173.155C95.3003 173.155 90.4035 172.274 85.13 170.513C78.601 167.997 73.1388 164.286 68.7442 159.38C64.4752 154.349 61.8385 148.877 60.834 142.964C60.0806 139.065 59.704 135.291 59.704 131.643C59.704 123.215 61.3362 115.29 64.6008 107.868C69.1209 97.4274 75.4617 88.9992 83.6233 82.5838C91.7847 76.1683 101.076 72.9606 111.497 72.9606C115.264 72.9606 119.345 73.4638 123.74 74.4701C126.627 75.2249 129.452 76.5457 132.215 78.4326H133.156L135.04 78.2439C138.179 78.2439 140.941 79.3761 143.327 81.6403C145.838 83.9046 147.282 86.6721 147.659 89.9427L148.977 102.962C149.228 108.497 149.542 117.932 149.919 131.266L150.295 141.455C150.546 147.745 150.672 151.896 150.672 153.908C150.798 155.795 150.735 157.619 150.484 159.38C149.981 163.028 148.6 166.173 146.34 168.815C144.206 171.331 141.381 172.652 137.865 172.777C134.977 172.903 132.34 172.211 129.955 170.702C127.695 169.067 126.062 166.173 125.058 162.022C122.17 165.544 118.654 168.123 114.511 169.758C109.614 171.771 104.717 172.903 99.8205 173.155ZM100.009 146.55C103.776 146.55 107.668 145.355 111.686 142.964C112.69 142.336 113.82 141.392 115.076 140.134L117.901 137.492L121.103 132.964C121.856 132.083 122.735 131.454 123.74 131.077C123.74 120.51 123.426 111.579 122.798 104.283L120.914 102.962L118.278 100.887L116.583 99.7545C114.574 99.2514 113.004 98.9998 111.874 98.9998C107.354 98.9998 102.959 100.761 98.6904 104.283C94.547 107.805 91.2197 112.711 88.7085 119.001C86.6995 123.907 85.6951 128.31 85.6951 132.209C85.6951 135.606 86.4484 138.436 87.9551 140.7C89.5874 142.964 91.8475 144.6 94.7353 145.606C96.6187 146.235 98.3765 146.55 100.009 146.55ZM169.17 172.777C165.529 172.652 162.453 171.268 159.941 168.626C157.43 165.859 156.237 162.714 156.363 159.192C157.116 136.926 157.179 100.761 156.551 50.6952C156.551 47.0472 157.807 43.9653 160.318 41.4494C162.829 38.8078 165.905 37.487 169.547 37.487C173.188 37.3612 176.264 38.5562 178.775 41.0721C181.412 43.5879 182.793 46.6699 182.919 50.3179C182.919 52.3305 182.919 56.4188 182.919 62.5827C183.044 68.7465 183.107 73.2122 183.107 75.9796L185.744 74.8475C193.78 71.9543 201.25 71.0108 208.156 72.0172C214.936 73.0235 221.214 75.7281 226.99 80.1308C237.035 87.6784 243.815 98.4337 247.331 112.397C250.972 125.353 250.093 137.492 244.694 148.814C241.555 155.355 237.035 160.701 231.134 164.852C225.232 169.004 218.138 171.52 209.851 172.4C199.179 173.658 189.762 172.148 181.6 167.872L179.34 166.362C176.578 170.765 173.188 172.903 169.17 172.777ZM207.214 146.361C213.869 145.606 218.452 142.65 220.963 137.492C223.6 131.832 223.914 125.668 221.905 119.001C219.896 110.95 216.318 104.975 211.17 101.075C206.524 97.679 201.313 97.1129 195.537 99.3772C194.659 99.7546 192.21 101.327 188.192 104.094C185.932 105.981 184.425 107.931 183.672 109.944L183.484 110.132C183.484 118.686 183.421 125.982 183.295 132.02C184.551 133.404 185.869 135.04 187.251 136.926L190.452 141.078C191.959 142.964 193.152 144.097 194.031 144.474C197.295 146.235 201.69 146.864 207.214 146.361ZM287.803 174.287C282.279 174.287 276.879 173.595 271.606 172.211C266.458 170.828 262.126 168.878 258.611 166.362C255.974 164.224 253.588 161.393 251.454 157.871L250.135 155.607L248.44 152.588C247.31 150.449 246.745 148.499 246.745 146.738C246.745 143.468 248.064 140.637 250.7 138.247C253.463 135.731 256.539 134.473 259.929 134.473C264.198 134.473 267.588 136.36 270.099 140.134L272.359 143.908L273.489 146.172C274.243 147.682 275.687 148.877 277.821 149.757C281.086 150.764 283.911 151.267 286.296 151.267C288.054 151.267 290.252 151.078 292.888 150.701C299.543 149.317 302.996 147.241 303.247 144.474V143.719C303.247 142.21 302.556 140.763 301.175 139.379C299.543 137.87 295.776 135.92 289.875 133.53L281.588 130.322C276.942 128.687 273.615 127.366 271.606 126.36C262.44 122.334 256.476 117.428 253.714 111.642C251.83 107.868 250.889 104.157 250.889 100.509C250.889 97.4903 251.517 94.6599 252.772 92.0183C255.283 85.8544 261.122 80.8856 270.288 77.1118C276.314 74.7217 282.53 73.5267 288.933 73.5267C290.189 73.5267 292.072 73.6525 294.583 73.9041C305.633 75.0362 315.301 79.3761 323.588 86.9236C326.224 89.1879 327.543 92.0812 327.543 95.6034C327.543 98.874 326.35 101.83 323.964 104.472C321.704 107.113 318.879 108.434 315.489 108.434C312.852 108.434 310.215 107.554 307.579 105.793L303.059 102.396C300.924 100.887 299.355 99.9432 298.35 99.5659C294.583 98.3079 291.005 97.679 287.615 97.679C284.476 97.679 281.776 97.9934 279.516 98.6224C277.884 99.2514 277.068 100.132 277.068 101.264C277.068 102.019 277.445 102.648 278.198 103.151C279.077 103.654 280.458 104.346 282.341 105.227C284.601 106.233 287.866 107.428 292.135 108.812C295.023 109.692 297.973 110.824 300.987 112.208C302.996 113.089 305.193 114.095 307.579 115.227C310.09 116.233 312.664 117.68 315.301 119.567C319.444 122.334 322.709 125.794 325.094 129.945C327.48 133.97 328.673 138.499 328.673 143.531C328.673 145.166 328.61 146.424 328.484 147.304C327.354 155.104 323.776 161.142 317.749 165.419C311.848 169.696 304.754 172.463 296.467 173.721C293.704 174.098 290.817 174.287 287.803 174.287ZM467.326 160.324C467.2 163.972 465.819 167.054 463.182 169.57C460.545 172.086 457.406 173.281 453.765 173.155C450.124 173.029 447.048 171.645 444.536 169.004C442.025 166.362 440.832 163.217 440.958 159.569C441.209 151.393 441.084 127.24 440.581 87.1123C431.29 98.8111 422.124 111.328 413.084 124.662C410.949 127.681 408.124 129.568 404.609 130.322C401.093 130.951 397.828 130.259 394.815 128.247C394.438 127.995 394.124 127.744 393.873 127.492C392.492 126.611 391.299 125.542 390.295 124.284L361.291 87.6784C361.416 87.93 361.416 100.006 361.291 123.907C361.291 147.682 361.291 159.632 361.291 159.758C361.291 163.406 359.972 166.551 357.336 169.192C354.824 171.708 351.748 172.966 348.107 172.966C344.466 172.966 341.327 171.708 338.69 169.192C336.179 166.551 334.923 163.406 334.923 159.758C334.923 154.475 334.923 145.606 334.923 133.153C335.049 120.699 335.112 111.076 335.112 104.283C335.112 97.4903 334.986 89.0621 334.735 78.9987C334.484 70.0674 334.044 60.8216 333.417 51.2613C333.165 47.6133 334.233 44.4056 336.618 41.6381C339.004 38.8707 342.017 37.3612 345.659 37.1096C347.542 36.9838 349.3 37.2354 350.932 37.8643C354.448 38.3675 357.273 40.0657 359.407 42.959L401.219 95.6034C414.779 76.7344 428.59 59.7523 442.653 44.6572C445.29 40.1286 449.182 37.9272 454.33 38.053C457.971 38.1788 461.048 39.5625 463.559 42.2042C466.07 44.8459 467.263 47.9907 467.137 51.6387C466.76 63.589 466.76 81.8919 467.137 106.547C467.514 131.077 467.577 149.003 467.326 160.324ZM632.369 161.079C632.244 164.475 630.925 167.368 628.414 169.758C625.903 172.148 622.952 173.281 619.562 173.155C616.172 173.029 613.284 171.708 610.899 169.192C608.513 166.676 607.383 163.72 607.509 160.324C607.509 158.94 607.634 154.789 607.885 147.87C608.262 140.952 608.45 135.606 608.45 131.832C608.576 128.058 608.45 123.718 608.074 118.812C607.697 113.78 607.006 109.755 606.002 106.736C605.248 104.346 603.742 102.396 601.482 100.887C599.222 99.2514 596.397 98.3079 593.006 98.0563C589.491 97.679 586.226 98.1192 583.213 99.3772C580.325 100.509 578.19 102.145 576.809 104.283C576.307 105.918 575.993 107.051 575.868 107.68C575.868 108.183 575.868 109 575.868 110.132C575.868 114.535 575.93 122.46 576.056 133.907C576.181 145.229 576.244 153.846 576.244 159.758C576.244 163.406 574.926 166.551 572.289 169.192C569.778 171.708 566.702 172.966 563.061 172.966C559.419 172.966 556.28 171.708 553.644 169.192C551.132 166.551 549.877 163.406 549.877 159.758C549.877 154.475 549.751 143.656 549.5 127.303C549.375 110.95 548.872 98.4337 547.993 89.754C547.366 85.2254 548.245 81.6403 550.63 78.9987C553.016 76.2312 556.092 74.8475 559.859 74.8475C566.639 75.2249 570.594 78.4955 571.724 84.6594C577.5 77.3634 585.473 73.5267 595.643 73.1493C604.558 73.2751 611.84 75.7281 617.49 80.5082C623.141 85.1625 627.221 91.3893 629.732 99.1885C631.114 103.465 632.055 108.875 632.558 115.416C633.185 121.957 633.437 127.492 633.311 132.02C633.311 136.423 633.123 142.336 632.746 149.757C632.495 157.179 632.369 160.953 632.369 161.079ZM673.92 174.287C668.395 174.287 662.996 173.595 657.723 172.211C652.575 170.828 648.243 168.878 644.727 166.362C642.091 164.224 639.705 161.393 637.571 157.871L636.252 155.607L634.557 152.588C633.427 150.449 632.862 148.499 632.862 146.738C632.862 143.468 634.18 140.637 636.817 138.247C639.579 135.731 642.656 134.473 646.046 134.473C650.315 134.473 653.705 136.36 656.216 140.134L658.476 143.908L659.606 146.172C660.36 147.682 661.803 148.877 663.938 149.757C667.203 150.764 670.028 151.267 672.413 151.267C674.171 151.267 676.368 151.078 679.005 150.701C685.66 149.317 689.113 147.241 689.364 144.474V143.719C689.364 142.21 688.673 140.763 687.292 139.379C685.66 137.87 681.893 135.92 675.992 133.53L667.705 130.322C663.059 128.687 659.732 127.366 657.723 126.36C648.557 122.334 642.593 117.428 639.831 111.642C637.947 107.868 637.006 104.157 637.006 100.509C637.006 97.4903 637.633 94.6599 638.889 92.0183C641.4 85.8544 647.239 80.8856 656.404 77.1118C662.431 74.7217 668.646 73.5267 675.05 73.5267C676.306 73.5267 678.189 73.6525 680.7 73.9041C691.749 75.0362 701.417 79.3761 709.704 86.9236C712.341 89.1879 713.659 92.0812 713.659 95.6034C713.659 98.874 712.467 101.83 710.081 104.472C707.821 107.113 704.996 108.434 701.606 108.434C698.969 108.434 696.332 107.554 693.696 105.793L689.175 102.396C687.041 100.887 685.471 99.9432 684.467 99.5659C680.7 98.3079 677.122 97.679 673.732 97.679C670.593 97.679 667.893 97.9934 665.633 98.6224C664.001 99.2514 663.185 100.132 663.185 101.264C663.185 102.019 663.561 102.648 664.315 103.151C665.194 103.654 666.575 104.346 668.458 105.227C670.718 106.233 673.983 107.428 678.252 108.812C681.14 109.692 684.09 110.824 687.104 112.208C689.113 113.089 691.31 114.095 693.696 115.227C696.207 116.233 698.781 117.68 701.417 119.567C705.561 122.334 708.825 125.794 711.211 129.945C713.597 133.97 714.79 138.499 714.79 143.531C714.79 145.166 714.727 146.424 714.601 147.304C713.471 155.104 709.893 161.142 703.866 165.419C697.965 169.696 690.87 172.463 682.584 173.721C679.821 174.098 676.933 174.287 673.92 174.287ZM751.174 173.344C748.663 173.344 746.215 172.526 743.829 170.891C742.448 170.387 741.13 169.758 739.874 169.004L734.977 166.173C729.955 163.28 726.188 160.576 723.677 158.06C721.542 155.292 720.224 152.588 719.722 149.946C719.219 147.179 718.906 143.153 718.78 137.87V134.096C718.654 130.448 718.592 121.957 718.592 108.623C718.592 103.214 718.654 99.1256 718.78 96.3581H715.202C712.063 96.3581 709.3 95.2889 706.915 93.1504C704.655 90.8861 703.525 88.0558 703.525 84.6594C703.525 81.1372 704.717 78.2439 707.103 75.9796C709.489 73.5896 712.251 72.3945 715.39 72.3945H718.78L718.968 64.2809V58.4315C719.094 54.4061 720.412 51.3242 722.923 49.1857C725.56 46.9214 728.574 45.7893 731.964 45.7893C735.479 45.7893 738.556 46.9843 741.192 49.3744C743.955 51.7645 745.336 55.0351 745.336 59.1863L744.959 72.0172H751.928C756.448 72.0172 759.838 73.2122 762.098 75.6023C764.358 77.9923 765.488 81.0114 765.488 84.6594C765.488 88.1816 764.295 91.2006 761.91 93.7165C759.524 96.1066 756.008 97.3016 751.363 97.3016H744.394C744.394 102.459 744.331 106.296 744.206 108.812C744.08 111.453 744.017 115.227 744.017 120.133C744.017 128.184 744.268 135.165 744.771 141.078C745.273 141.581 745.587 141.832 745.712 141.832L747.596 143.153L749.103 143.908L750.798 144.851L752.304 145.606C754.564 146.612 756.511 147.745 758.143 149.003C762.035 151.644 763.981 155.166 763.981 159.569C763.981 163.091 762.726 166.299 760.215 169.192C757.703 171.96 754.69 173.344 751.174 173.344ZM807.55 174.664C797.506 174.664 788.716 172.526 781.184 168.249C773.65 163.972 767.874 158.248 763.857 151.078C759.964 143.908 758.018 135.983 758.018 127.303C758.018 116.359 760.027 106.925 764.045 98.9998C768.063 90.949 773.839 84.5965 781.372 79.9421C788.905 75.2878 797.443 72.9606 806.985 72.9606C816.779 72.9606 825.129 74.9733 832.034 78.9987C839.066 83.0241 844.339 88.4961 847.855 95.4147C851.371 102.208 853.128 109.818 853.128 118.246C853.128 122.523 851.747 125.857 848.985 128.247C846.223 130.637 842.519 132.02 837.873 132.398C828.456 133.278 820.106 133.719 812.824 133.719C805.918 133.719 798.51 133.53 790.6 133.153L784.009 132.964C784.761 139.128 787.147 143.971 791.165 147.493C795.308 150.889 801.524 152.462 809.81 152.21C813.577 152.084 816.591 151.644 818.851 150.889C821.111 150.009 823.12 148.751 824.878 147.116C825.882 146.109 826.949 145.04 828.079 143.908C829.209 142.776 830.465 141.895 831.846 141.266C833.227 140.637 834.922 140.323 836.931 140.323C840.196 140.323 842.895 141.455 845.03 143.719C847.29 145.858 848.42 148.374 848.42 151.267C848.42 155.292 846.411 159.129 842.393 162.777C838.375 166.425 833.164 169.318 826.761 171.457C820.483 173.595 814.079 174.664 807.55 174.664ZM784.385 113.718C791.793 114.724 800.017 115.101 809.057 114.85C817.721 114.724 824.061 114.158 828.079 113.152C827.828 107.742 826.196 103.403 823.183 100.132C820.295 96.8613 815.021 95.2889 807.362 95.4147C800.959 95.5405 795.748 96.9871 791.73 99.7545C787.712 102.522 785.264 107.176 784.385 113.718ZM858.441 169.004C855.804 166.488 854.486 163.469 854.486 159.947C854.36 147.493 854.298 137.681 854.298 130.511C854.047 129.001 854.047 127.555 854.298 126.171C854.172 112.208 854.109 99.5659 854.109 88.2445C854.109 83.3385 855.365 79.6276 857.876 77.1118C860.513 74.4701 863.652 73.1493 867.293 73.1493C869.93 73.1493 872.315 73.9041 874.45 75.4136C876.71 76.7973 878.342 79.3132 879.347 82.9612C884.369 80.1937 891.903 77.0489 901.947 73.5267C905.212 72.3946 908.351 72.5832 911.364 74.0928C914.503 75.4765 916.638 77.8037 917.768 81.0743C918.898 84.3449 918.71 87.5526 917.203 90.6974C915.822 93.7165 913.499 95.7921 910.234 96.9242C898.683 100.95 888.826 104.912 880.665 108.812C880.163 112.837 880.1 118.561 880.477 125.982C880.602 133.907 880.728 145.103 880.854 159.569C880.854 163.217 879.535 166.362 876.898 169.004C874.387 171.645 871.311 172.966 867.67 172.966C864.154 172.966 861.078 171.645 858.441 169.004Z" fill="#EDF5E0"/>
<path fill-rule="evenodd" clip-rule="evenodd" d="M506.161 172.965C534.333 172.965 557.17 150.085 557.17 121.861C557.17 93.6372 534.333 70.7578 506.161 70.7578C477.99 70.7578 455.153 93.6372 455.153 121.861C455.153 150.085 477.99 172.965 506.161 172.965ZM506.161 155.93C524.942 155.93 540.167 140.677 540.167 121.861C540.167 103.045 524.942 87.7918 506.161 87.7918C487.38 87.7918 472.155 103.045 472.155 121.861C472.155 140.677 487.38 155.93 506.161 155.93Z" fill="#05396B"/>
<path d="M514.008 149.379C524.843 149.379 533.627 140.579 533.627 129.724C533.627 118.868 524.843 110.068 514.008 110.068C503.173 110.068 494.39 118.868 494.39 129.724C494.39 140.579 503.173 149.379 514.008 149.379Z" fill="#05396B"/>
<path d="M517.932 133.656C522.266 133.656 525.78 130.136 525.78 125.794C525.78 121.452 522.266 117.932 517.932 117.932C513.598 117.932 510.085 121.452 510.085 125.794C510.085 130.136 513.598 133.656 517.932 133.656Z" fill="#EDF5E0"/>
</svg>
