<svg width="24" height="24" viewBox="0 0 24 24" fill="none" xmlns="http://www.w3.org/2000/svg">
<path d="M19.995 6.68883C20.8914 6.15292 21.5622 5.30906 21.882 4.31483C21.0397 4.81465 20.1181 5.16672 19.157 5.35583C18.5088 4.67018 17.6532 4.21675 16.7219 4.06543C15.7905 3.91411 14.8353 4.07331 14.0034 4.51848C13.1715 4.96366 12.5091 5.67009 12.1184 6.52889C11.7276 7.38769 11.6301 8.35117 11.841 9.27083C10.1349 9.18517 8.46586 8.74171 6.94223 7.96921C5.41861 7.19672 4.07445 6.11246 2.99702 4.78683C2.44908 5.73193 2.28141 6.85016 2.52806 7.9144C2.77472 8.97865 3.41719 9.90911 4.32502 10.5168C3.64373 10.4949 2.97754 10.3105 2.38202 9.97883V10.0328C2.38221 11.0238 2.72515 11.9842 3.35268 12.7512C3.98021 13.5181 4.8537 14.0444 5.82502 14.2408C5.19308 14.4128 4.53022 14.4381 3.88702 14.3148C4.16175 15.1671 4.69572 15.9124 5.41442 16.4467C6.13312 16.9809 7.00068 17.2774 7.89602 17.2948C6.37585 18.488 4.49849 19.135 2.56602 19.1318C2.22302 19.1318 1.88102 19.1118 1.54102 19.0728C3.50343 20.3338 5.78739 21.0031 8.12002 21.0008C9.72662 21.0119 11.3194 20.7035 12.8058 20.0938C14.2923 19.484 15.6427 18.585 16.7787 17.4488C17.9148 16.3127 18.8137 14.9622 19.4233 13.4757C20.033 11.9892 20.3412 10.3964 20.33 8.78983C20.33 8.60383 20.326 8.41883 20.317 8.23483C21.1575 7.62745 21.8828 6.87499 22.459 6.01283C21.676 6.35988 20.8455 6.58774 19.995 6.68883V6.68883Z" fill="#55ACEE"/>
</svg>
