<svg width="16" height="16" viewBox="0 0 16 16" fill="none" xmlns="http://www.w3.org/2000/svg">
<path fill-rule="evenodd" clip-rule="evenodd" d="M8 16C12.4183 16 16 12.4183 16 8C16 3.58172 12.4183 0 8 0C3.58172 0 0 3.58172 0 8C0 12.4183 3.58172 16 8 16ZM7.99996 13.3332C10.9455 13.3332 13.3333 10.9454 13.3333 7.99991C13.3333 5.05439 10.9455 2.66658 7.99996 2.66658C5.05444 2.66658 2.66663 5.05439 2.66663 7.99991C2.66663 10.9454 5.05444 13.3332 7.99996 13.3332Z" fill="#05396B"/>
<ellipse cx="9.23073" cy="9.23122" rx="3.07692" ry="3.07692" fill="#05396B"/>
<ellipse cx="9.84613" cy="8.61553" rx="1.23077" ry="1.23077" fill="white"/>
</svg>
