<svg width="800" height="197" viewBox="0 0 800 197" fill="none" xmlns="http://www.w3.org/2000/svg">
<path d="M46.3187 149.774C44.1492 149.774 42.0339 149.068 39.9729 147.655C38.7797 147.22 37.6407 146.677 36.556 146.025L32.3255 143.579C27.9865 141.079 24.7322 138.742 22.5628 136.569C20.7187 134.177 19.5797 131.841 19.1458 129.558C18.7119 127.167 18.4407 123.689 18.3322 119.124V115.863C18.2238 112.711 18.1695 105.375 18.1695 93.8535C18.1695 89.1799 18.2238 85.6474 18.3322 83.2563H15.2407C12.5289 83.2563 10.1424 82.3324 8.0814 80.4847C6.12886 78.5283 5.15259 76.0827 5.15259 73.1481C5.15259 70.1048 6.1831 67.6049 8.24411 65.6485C10.3051 63.5834 12.6916 62.5509 15.4034 62.5509H18.3322L18.495 55.5404V50.4863C18.6034 47.0083 19.7424 44.3454 21.9119 42.4976C24.1899 40.5412 26.7933 39.563 29.7221 39.563C32.7594 39.563 35.417 40.5956 37.695 42.6607C40.0814 44.7258 41.2746 47.5517 41.2746 51.1385L40.9492 62.2248H46.9695C50.8746 62.2248 53.8034 63.2574 55.756 65.3225C57.7085 67.3876 58.6848 69.9961 58.6848 73.1481C58.6848 76.1914 57.6543 78.8 55.5933 80.9738C53.5322 83.0389 50.495 84.0714 46.4814 84.0714H40.4611C40.4611 88.5277 40.4068 91.8428 40.2983 94.0165C40.1899 96.299 40.1356 99.5597 40.1356 103.799C40.1356 110.755 40.3526 116.787 40.7865 121.895C41.2204 122.33 41.4916 122.548 41.6 122.548L43.2272 123.689L44.5289 124.341L45.9933 125.156L47.295 125.808C49.2475 126.678 50.9289 127.656 52.339 128.743C55.7017 131.025 57.3831 134.069 57.3831 137.873C57.3831 140.916 56.2983 143.688 54.1289 146.188C51.9594 148.579 49.356 149.774 46.3187 149.774ZM86.238 149.611C82.3329 149.611 78.1024 148.85 73.5465 147.329C67.9058 145.155 63.1869 141.949 59.3903 137.71C55.7021 133.362 53.4242 128.634 52.5564 123.526C51.9055 120.156 51.5801 116.896 51.5801 113.744C51.5801 106.462 52.9903 99.6141 55.8106 93.2014C59.7157 84.1801 65.1937 76.8979 72.2448 71.3547C79.2956 65.8116 87.3227 63.04 96.3261 63.04C99.5804 63.04 103.106 63.4747 106.902 64.3443C109.397 64.9964 111.838 66.1376 114.224 67.768H115.038L116.665 67.6049C119.377 67.6049 121.763 68.5832 123.824 70.5396C125.994 72.496 127.241 74.8872 127.567 77.7131L128.706 88.9625C128.923 93.7448 129.194 101.897 129.519 113.418L129.845 122.222C130.062 127.656 130.17 131.243 130.17 132.982C130.279 134.612 130.224 136.188 130.007 137.71C129.574 140.862 128.38 143.579 126.428 145.862C124.584 148.035 122.143 149.177 119.106 149.285C116.611 149.394 114.333 148.796 112.272 147.492C110.319 146.079 108.909 143.579 108.041 139.992C105.546 143.036 102.509 145.264 98.9295 146.677C94.699 148.416 90.4685 149.394 86.238 149.611ZM86.4007 126.623C89.6549 126.623 93.0177 125.591 96.4888 123.526C97.3566 122.982 98.3329 122.167 99.4177 121.08L101.858 118.798L104.624 114.885C105.275 114.124 106.035 113.581 106.902 113.255C106.902 104.125 106.631 96.4077 106.089 90.1037L104.462 88.9625L102.184 87.1691L100.719 86.1909C98.9838 85.7561 97.6278 85.5387 96.6516 85.5387C92.7465 85.5387 88.9499 87.0604 85.2617 90.1037C81.6821 93.147 78.8075 97.3859 76.638 102.82C74.9024 107.059 74.0346 110.863 74.0346 114.233C74.0346 117.167 74.6855 119.613 75.9872 121.569C77.3973 123.526 79.3499 124.939 81.8448 125.808C83.4719 126.352 84.9905 126.623 86.4007 126.623ZM146.151 149.285C143.005 149.177 140.348 147.981 138.178 145.698C136.009 143.307 134.978 140.59 135.087 137.547C135.738 118.309 135.792 87.0604 135.25 43.8019C135.25 40.6499 136.334 37.987 138.504 35.8132C140.673 33.5307 143.331 32.3895 146.477 32.3895C149.622 32.2808 152.28 33.3134 154.45 35.4872C156.727 37.6609 157.921 40.3238 158.029 43.4758C158.029 45.2149 158.029 48.7473 158.029 54.0731C158.138 59.3989 158.192 63.2574 158.192 65.6485L160.47 64.6703C167.412 62.1705 173.866 61.3553 179.833 62.2248C185.69 63.0943 191.114 65.4312 196.104 69.2353C204.782 75.7567 210.639 85.0496 213.677 97.1142C216.822 108.309 216.063 118.798 211.399 128.58C208.687 134.232 204.782 138.851 199.683 142.438C194.585 146.025 188.456 148.198 181.297 148.959C172.077 150.046 163.941 148.742 156.89 145.046L154.938 143.742C152.551 147.546 149.622 149.394 146.151 149.285ZM179.019 126.46C184.768 125.808 188.727 123.254 190.897 118.798C193.175 113.907 193.446 108.581 191.711 102.82C189.975 95.8643 186.883 90.7015 182.436 87.3321C178.422 84.3975 173.921 83.9084 168.931 85.8648C168.172 86.1909 166.056 87.5495 162.585 89.9407C160.633 91.571 159.331 93.2557 158.68 94.9948L158.517 95.1578C158.517 102.549 158.463 108.853 158.355 114.07C159.439 115.265 160.578 116.678 161.772 118.309L164.538 121.895C165.839 123.526 166.87 124.504 167.629 124.83C170.45 126.352 174.246 126.895 179.019 126.46ZM248.642 150.59C243.869 150.59 239.205 149.992 234.649 148.796C230.201 147.601 226.459 145.916 223.422 143.742C221.144 141.894 219.083 139.449 217.239 136.406L216.1 134.449L214.635 131.841C213.659 129.993 213.171 128.308 213.171 126.786C213.171 123.961 214.31 121.515 216.588 119.45C218.974 117.276 221.632 116.189 224.561 116.189C228.249 116.189 231.178 117.82 233.347 121.08L235.3 124.341L236.276 126.297C236.927 127.602 238.174 128.634 240.018 129.395C242.839 130.265 245.279 130.699 247.34 130.699C248.859 130.699 250.757 130.536 253.035 130.21C258.784 129.015 261.767 127.221 261.984 124.83V124.178C261.984 122.874 261.388 121.624 260.195 120.428C258.784 119.124 255.53 117.439 250.432 115.374L243.273 112.602C239.259 111.19 236.384 110.048 234.649 109.179C226.73 105.701 221.578 101.462 219.191 96.4621C217.564 93.2014 216.751 89.995 216.751 86.843C216.751 84.2345 217.293 81.789 218.378 79.5065C220.547 74.1807 225.591 69.8874 233.51 66.6267C238.717 64.5616 244.086 63.5291 249.618 63.5291C250.703 63.5291 252.33 63.6378 254.5 63.8552C264.045 64.8334 272.398 68.5832 279.557 75.1045C281.835 77.061 282.974 79.5608 282.974 82.6041C282.974 85.4301 281.944 87.9843 279.883 90.2668C277.93 92.5492 275.49 93.6905 272.561 93.6905C270.283 93.6905 268.005 92.9296 265.727 91.408L261.822 88.4734C259.978 87.1691 258.622 86.3539 257.754 86.0279C254.5 84.941 251.408 84.3975 248.479 84.3975C245.767 84.3975 243.435 84.6692 241.483 85.2127C240.073 85.7561 239.367 86.517 239.367 87.4952C239.367 88.1473 239.693 88.6908 240.344 89.1255C241.103 89.5603 242.296 90.1581 243.923 90.9189C245.876 91.7884 248.696 92.821 252.384 94.0165C254.879 94.7774 257.428 95.7556 260.032 96.9512C261.767 97.712 263.666 98.5815 265.727 99.5597C267.896 100.429 270.12 101.679 272.398 103.31C275.978 105.701 278.798 108.69 280.859 112.276C282.92 115.754 283.951 119.667 283.951 124.015C283.951 125.428 283.896 126.515 283.788 127.276C282.812 134.014 279.72 139.231 274.513 142.927C269.415 146.622 263.286 149.014 256.127 150.1C253.74 150.426 251.245 150.59 248.642 150.59ZM403.737 138.525C403.628 141.677 402.435 144.34 400.157 146.514C397.879 148.687 395.167 149.72 392.022 149.611C388.876 149.503 386.218 148.307 384.049 146.025C381.879 143.742 380.849 141.025 380.957 137.873C381.174 130.808 381.066 109.94 380.632 75.2676C372.605 85.3757 364.686 96.1903 356.876 107.711C355.032 110.32 352.591 111.95 349.554 112.602C346.517 113.146 343.696 112.548 341.093 110.809C340.767 110.592 340.496 110.374 340.279 110.157C339.086 109.396 338.056 108.472 337.188 107.385L312.13 75.7567C312.239 75.9741 312.239 86.4083 312.13 107.059C312.13 127.602 312.13 137.927 312.13 138.036C312.13 141.188 310.991 143.905 308.713 146.188C306.544 148.361 303.886 149.448 300.74 149.448C297.595 149.448 294.883 148.361 292.605 146.188C290.435 143.905 289.351 141.188 289.351 138.036C289.351 133.471 289.351 125.808 289.351 115.048C289.459 104.288 289.513 95.973 289.513 90.1037C289.513 84.2345 289.405 76.9523 289.188 68.2571C288.971 60.5401 288.591 52.5514 288.049 44.291C287.832 41.139 288.754 38.3674 290.815 35.9763C292.876 33.5851 295.479 32.2808 298.625 32.0634C300.252 31.9547 301.771 32.1721 303.181 32.7156C306.218 33.1503 308.659 34.6176 310.503 37.1175L346.625 82.6041C358.34 66.3007 370.273 51.6276 382.422 38.5848C384.7 34.672 388.062 32.7699 392.51 32.8786C395.656 32.9873 398.313 34.1829 400.483 36.4654C402.652 38.7478 403.683 41.4651 403.574 44.6171C403.249 54.9426 403.249 70.757 403.574 92.0601C403.9 113.255 403.954 128.743 403.737 138.525ZM546.323 139.177C546.215 142.112 545.076 144.612 542.906 146.677C540.737 148.742 538.188 149.72 535.259 149.611C532.33 149.503 529.835 148.361 527.774 146.188C525.713 144.014 524.737 141.46 524.845 138.525C524.845 137.329 524.954 133.743 525.171 127.765C525.496 121.787 525.659 117.167 525.659 113.907C525.767 110.646 525.659 106.896 525.334 102.657C525.008 98.3098 524.411 94.8317 523.544 92.2232C522.893 90.1581 521.591 88.4734 519.639 87.1691C517.686 85.7561 515.245 84.941 512.317 84.7236C509.279 84.3975 506.459 84.7779 503.856 85.8648C501.361 86.843 499.517 88.256 498.323 90.1037C497.889 91.5167 497.618 92.4949 497.51 93.0383C497.51 93.4731 497.51 94.1796 497.51 95.1578C497.51 98.9619 497.564 105.809 497.673 115.7C497.781 125.482 497.835 132.927 497.835 138.036C497.835 141.188 496.696 143.905 494.418 146.188C492.249 148.361 489.591 149.448 486.445 149.448C483.3 149.448 480.588 148.361 478.31 146.188C476.14 143.905 475.056 141.188 475.056 138.036C475.056 133.471 474.947 124.124 474.73 109.994C474.622 95.8643 474.188 85.0496 473.428 77.5501C472.886 73.6372 473.645 70.5396 475.706 68.2571C477.767 65.8659 480.425 64.6703 483.679 64.6703C489.537 64.9964 492.954 67.8223 493.93 73.1481C498.92 66.8441 505.808 63.5291 514.595 63.203C522.296 63.3117 528.588 65.4312 533.469 69.5614C538.35 73.5829 541.876 78.963 544.045 85.7018C545.239 89.3972 546.052 94.0709 546.486 99.7228C547.028 105.375 547.245 110.157 547.137 114.07C547.137 117.874 546.974 122.982 546.649 129.395C546.432 135.808 546.323 139.068 546.323 139.177ZM582.22 150.59C577.447 150.59 572.783 149.992 568.227 148.796C563.78 147.601 560.037 145.916 557 143.742C554.722 141.894 552.661 139.449 550.817 136.406L549.678 134.449L548.214 131.841C547.237 129.993 546.749 128.308 546.749 126.786C546.749 123.961 547.888 121.515 550.166 119.45C552.552 117.276 555.21 116.189 558.139 116.189C561.827 116.189 564.756 117.82 566.925 121.08L568.878 124.341L569.854 126.297C570.505 127.602 571.753 128.634 573.597 129.395C576.417 130.265 578.858 130.699 580.919 130.699C582.437 130.699 584.336 130.536 586.614 130.21C592.363 129.015 595.346 127.221 595.563 124.83V124.178C595.563 122.874 594.966 121.624 593.773 120.428C592.363 119.124 589.108 117.439 584.01 115.374L576.851 112.602C572.837 111.19 569.963 110.048 568.227 109.179C560.308 105.701 555.156 101.462 552.769 96.4621C551.142 93.2014 550.329 89.995 550.329 86.843C550.329 84.2345 550.871 81.789 551.956 79.5065C554.125 74.1807 559.169 69.8874 567.088 66.6267C572.295 64.5616 577.664 63.5291 583.197 63.5291C584.281 63.5291 585.908 63.6378 588.078 63.8552C597.624 64.8334 605.976 68.5832 613.136 75.1045C615.414 77.061 616.552 79.5608 616.552 82.6041C616.552 85.4301 615.522 87.9843 613.461 90.2668C611.508 92.5492 609.068 93.6905 606.139 93.6905C603.861 93.6905 601.583 92.9296 599.305 91.408L595.4 88.4734C593.556 87.1691 592.2 86.3539 591.332 86.0279C588.078 84.941 584.986 84.3975 582.058 84.3975C579.346 84.3975 577.014 84.6692 575.061 85.2127C573.651 85.7561 572.946 86.517 572.946 87.4952C572.946 88.1473 573.271 88.6908 573.922 89.1255C574.681 89.5603 575.875 90.1581 577.502 90.9189C579.454 91.7884 582.275 92.821 585.963 94.0165C588.458 94.7774 591.007 95.7556 593.61 96.9512C595.346 97.712 597.244 98.5815 599.305 99.5597C601.475 100.429 603.698 101.679 605.976 103.31C609.556 105.701 612.376 108.69 614.437 112.276C616.498 115.754 617.529 119.667 617.529 124.015C617.529 125.428 617.475 126.515 617.366 127.276C616.39 134.014 613.298 139.231 608.091 142.927C602.993 146.622 596.864 149.014 589.705 150.1C587.319 150.426 584.824 150.59 582.22 150.59ZM648.963 149.774C646.793 149.774 644.678 149.068 642.617 147.655C641.424 147.22 640.285 146.677 639.2 146.025L634.969 143.579C630.63 141.079 627.376 138.742 625.207 136.569C623.363 134.177 622.224 131.841 621.79 129.558C621.356 127.167 621.085 123.689 620.976 119.124V115.863C620.868 112.711 620.814 105.375 620.814 93.8535C620.814 89.1799 620.868 85.6474 620.976 83.2563H617.885C615.173 83.2563 612.786 82.3324 610.725 80.4847C608.773 78.5283 607.797 76.0827 607.797 73.1481C607.797 70.1048 608.827 67.6049 610.888 65.6485C612.949 63.5834 615.336 62.5509 618.047 62.5509H620.976L621.139 55.5404V50.4863C621.247 47.0083 622.386 44.3454 624.556 42.4976C626.834 40.5412 629.437 39.563 632.366 39.563C635.403 39.563 638.061 40.5956 640.339 42.6607C642.725 44.7258 643.919 47.5517 643.919 51.1385L643.593 62.2248H649.614C653.519 62.2248 656.447 63.2574 658.4 65.3225C660.352 67.3876 661.329 69.9961 661.329 73.1481C661.329 76.1914 660.298 78.8 658.237 80.9738C656.176 83.0389 653.139 84.0714 649.125 84.0714H643.105C643.105 88.5277 643.051 91.8428 642.942 94.0165C642.834 96.299 642.78 99.5597 642.78 103.799C642.78 110.755 642.997 116.787 643.43 121.895C643.864 122.33 644.136 122.548 644.244 122.548L645.871 123.689L647.173 124.341L648.637 125.156L649.939 125.808C651.891 126.678 653.573 127.656 654.983 128.743C658.346 131.025 660.027 134.069 660.027 137.873C660.027 140.916 658.942 143.688 656.773 146.188C654.603 148.579 652 149.774 648.963 149.774ZM697.668 150.916C688.99 150.916 681.397 149.068 674.889 145.372C668.38 141.677 663.39 136.732 659.919 130.536C656.557 124.341 654.875 117.494 654.875 109.994C654.875 100.538 656.611 92.3862 660.082 85.5387C663.553 78.5826 668.543 73.0938 675.051 69.0723C681.559 65.0507 688.936 63.04 697.18 63.04C705.641 63.04 712.854 64.779 718.82 68.2571C724.895 71.7352 729.451 76.4632 732.488 82.4411C735.525 88.3103 737.044 94.8861 737.044 102.168C737.044 105.864 735.851 108.744 733.464 110.809C731.078 112.874 727.878 114.07 723.864 114.396C715.729 115.157 708.515 115.537 702.224 115.537C696.258 115.537 689.858 115.374 683.024 115.048L677.329 114.885C677.98 120.211 680.041 124.395 683.512 127.439C687.091 130.373 692.461 131.732 699.62 131.514C702.875 131.406 705.478 131.025 707.43 130.373C709.383 129.612 711.119 128.526 712.637 127.113C713.505 126.243 714.427 125.319 715.403 124.341C716.38 123.363 717.464 122.602 718.658 122.058C719.851 121.515 721.315 121.243 723.051 121.243C725.871 121.243 728.203 122.222 730.047 124.178C732 126.026 732.976 128.199 732.976 130.699C732.976 134.177 731.241 137.492 727.769 140.644C724.298 143.796 719.797 146.296 714.264 148.144C708.841 149.992 703.308 150.916 697.668 150.916ZM677.655 98.2554C684.054 99.125 691.159 99.451 698.969 99.2337C706.454 99.125 711.932 98.6359 715.403 97.7663C715.186 93.0927 713.776 89.3429 711.173 86.517C708.678 83.691 704.122 82.3324 697.505 82.4411C691.973 82.5498 687.471 83.7997 684 86.1909C680.529 88.5821 678.414 92.6036 677.655 98.2554ZM741.634 146.025C739.356 143.851 738.217 141.242 738.217 138.199C738.108 127.439 738.054 118.961 738.054 112.766C737.837 111.461 737.837 110.211 738.054 109.016C737.946 96.9512 737.891 86.0279 737.891 76.2458C737.891 72.0069 738.976 68.8005 741.146 66.6267C743.424 64.3443 746.135 63.203 749.281 63.203C751.559 63.203 753.62 63.8552 755.464 65.1594C757.417 66.355 758.827 68.5288 759.695 71.6808C764.034 69.2896 770.542 66.5724 779.22 63.5291C782.041 62.5509 784.753 62.7139 787.356 64.0182C790.068 65.2138 791.912 67.2245 792.888 70.0505C793.864 72.8764 793.702 75.648 792.4 78.3652C791.207 80.9738 789.2 82.7672 786.38 83.7454C776.4 87.2234 767.885 90.6472 760.834 94.0165C760.4 97.4946 760.346 102.44 760.671 108.853C760.78 115.7 760.888 125.374 760.997 137.873C760.997 141.025 759.858 143.742 757.58 146.025C755.41 148.307 752.753 149.448 749.607 149.448C746.569 149.448 743.912 148.307 741.634 146.025Z" fill="black"/>
<path fill-rule="evenodd" clip-rule="evenodd" d="M437.288 149.448C461.627 149.448 481.356 129.68 481.356 105.293C481.356 80.9065 461.627 61.1379 437.288 61.1379C412.95 61.1379 393.22 80.9065 393.22 105.293C393.22 129.68 412.95 149.448 437.288 149.448ZM437.288 134.73C453.513 134.73 466.667 121.55 466.667 105.293C466.667 89.0352 453.513 75.8559 437.288 75.8559C421.063 75.8559 407.909 89.0352 407.909 105.293C407.909 121.55 421.063 134.73 437.288 134.73Z" fill="#208A5E"/>
<path d="M444.068 129.069C453.429 129.069 461.017 121.466 461.017 112.086C461.017 102.707 453.429 95.1035 444.068 95.1035C434.707 95.1035 427.119 102.707 427.119 112.086C427.119 121.466 434.707 129.069 444.068 129.069Z" fill="#060505"/>
<path d="M447.458 115.483C451.202 115.483 454.237 112.441 454.237 108.69C454.237 104.938 451.202 101.897 447.458 101.897C443.714 101.897 440.678 104.938 440.678 108.69C440.678 112.441 443.714 115.483 447.458 115.483Z" fill="white"/>
</svg>
