<?xml version="1.0" encoding="UTF-8" standalone="no"?>
<!DOCTYPE svg PUBLIC "-//W3C//DTD SVG 1.1//EN" "http://www.w3.org/Graphics/SVG/1.1/DTD/svg11.dtd">
<svg width="100%" height="100%" viewBox="0 0 800 197" version="1.1" xmlns="http://www.w3.org/2000/svg" xmlns:xlink="http://www.w3.org/1999/xlink" xml:space="preserve" xmlns:serif="http://www.serif.com/" style="fill-rule:evenodd;clip-rule:evenodd;stroke-linejoin:round;stroke-miterlimit:2;">
    <path d="M697.668,150.916C688.99,150.916 681.397,149.068 674.889,145.372C668.38,141.677 663.39,136.732 659.919,130.536C656.557,124.341 654.875,117.494 654.875,109.994C654.875,100.538 656.611,92.386 660.082,85.539C663.553,78.583 668.543,73.094 675.051,69.072C681.559,65.051 688.936,63.04 697.18,63.04C705.641,63.04 712.854,64.779 718.82,68.257C724.895,71.735 729.451,76.463 732.488,82.441C735.525,88.31 737.044,94.886 737.044,102.168C737.044,105.864 735.851,108.744 733.464,110.809C731.078,112.874 727.878,114.07 723.864,114.396C715.729,115.157 708.515,115.537 702.224,115.537C696.258,115.537 689.858,115.374 683.024,115.048L677.329,114.885C677.98,120.211 680.041,124.395 683.512,127.439C687.091,130.373 692.461,131.732 699.62,131.514C702.875,131.406 705.478,131.025 707.43,130.373C709.383,129.612 711.119,128.526 712.637,127.113C713.505,126.243 714.427,125.319 715.403,124.341C716.38,123.363 717.464,122.602 718.658,122.058C719.851,121.515 721.315,121.243 723.051,121.243C725.871,121.243 728.203,122.222 730.047,124.178C732,126.026 732.976,128.199 732.976,130.699C732.976,134.177 731.241,137.492 727.769,140.644C724.298,143.796 719.797,146.296 714.264,148.144C708.841,149.992 703.308,150.916 697.668,150.916ZM248.642,150.59C243.869,150.59 239.205,149.992 234.649,148.796C230.201,147.601 226.459,145.916 223.422,143.742C221.144,141.894 219.083,139.449 217.239,136.406L216.1,134.449L214.635,131.841C213.659,129.993 213.171,128.308 213.171,126.786C213.171,123.961 214.31,121.515 216.588,119.45C218.974,117.276 221.632,116.189 224.561,116.189C228.249,116.189 231.178,117.82 233.347,121.08L235.3,124.341L236.276,126.297C236.927,127.602 238.174,128.634 240.018,129.395C242.839,130.265 245.279,130.699 247.34,130.699C248.859,130.699 250.757,130.536 253.035,130.21C258.784,129.015 261.767,127.221 261.984,124.83L261.984,124.178C261.984,122.874 261.388,121.624 260.195,120.428C258.784,119.124 255.53,117.439 250.432,115.374L243.273,112.602C239.259,111.19 236.384,110.048 234.649,109.179C226.73,105.701 221.578,101.462 219.191,96.462C217.564,93.201 216.751,89.995 216.751,86.843C216.751,84.235 217.293,81.789 218.378,79.507C220.547,74.181 225.591,69.887 233.51,66.627C238.717,64.562 244.086,63.529 249.618,63.529C250.703,63.529 252.33,63.638 254.5,63.855C264.045,64.833 272.398,68.583 279.557,75.105C281.835,77.061 282.974,79.561 282.974,82.604C282.974,85.43 281.944,87.984 279.883,90.267C277.93,92.549 275.49,93.691 272.561,93.691C270.283,93.691 268.005,92.93 265.727,91.408L261.822,88.473C259.978,87.169 258.622,86.354 257.754,86.028C254.5,84.941 251.408,84.397 248.479,84.397C245.767,84.397 243.435,84.669 241.483,85.213C240.073,85.756 239.367,86.517 239.367,87.495C239.367,88.147 239.693,88.691 240.344,89.126C241.103,89.56 242.296,90.158 243.923,90.919C245.876,91.788 248.696,92.821 252.384,94.016C254.879,94.777 257.428,95.756 260.032,96.951C261.767,97.712 263.666,98.582 265.727,99.56C267.896,100.429 270.12,101.679 272.398,103.31C275.978,105.701 278.798,108.69 280.859,112.276C282.92,115.754 283.951,119.667 283.951,124.015C283.951,125.428 283.896,126.515 283.788,127.276C282.812,134.014 279.72,139.231 274.513,142.927C269.415,146.622 263.286,149.014 256.127,150.1C253.74,150.426 251.245,150.59 248.642,150.59ZM546.834,125.476C547.137,123.198 548.248,121.189 550.166,119.45C552.552,117.276 555.21,116.189 558.139,116.189C561.827,116.189 564.756,117.82 566.925,121.08L568.878,124.341L569.854,126.297C570.505,127.602 571.753,128.634 573.597,129.395C576.417,130.265 578.858,130.699 580.919,130.699C582.437,130.699 584.336,130.536 586.614,130.21C592.363,129.015 595.346,127.221 595.563,124.83L595.563,124.178C595.563,122.874 594.966,121.624 593.773,120.428C592.363,119.124 589.108,117.439 584.01,115.374L576.851,112.602C572.837,111.19 569.963,110.048 568.227,109.179C560.308,105.701 555.156,101.462 552.769,96.462C551.142,93.201 550.329,89.995 550.329,86.843C550.329,84.235 550.871,81.789 551.956,79.507C554.125,74.181 559.169,69.887 567.088,66.627C572.295,64.562 577.664,63.529 583.197,63.529C584.281,63.529 585.908,63.638 588.078,63.855C595.417,64.607 602.05,66.997 607.98,71.027C607.858,71.702 607.797,72.409 607.797,73.148C607.797,76.083 608.773,78.528 610.725,80.485C612.438,82.02 614.376,82.918 616.538,83.177C616.407,85.776 615.382,88.14 613.461,90.267C611.508,92.549 609.068,93.691 606.139,93.691C603.861,93.691 601.583,92.93 599.305,91.408L595.4,88.473C593.556,87.169 592.2,86.354 591.332,86.028C588.078,84.941 584.986,84.397 582.058,84.397C579.346,84.397 577.014,84.669 575.061,85.213C573.651,85.756 572.946,86.517 572.946,87.495C572.946,88.147 573.271,88.691 573.922,89.126C574.681,89.56 575.875,90.158 577.502,90.919C579.454,91.788 582.275,92.821 585.963,94.016C588.458,94.777 591.007,95.756 593.61,96.951C595.346,97.712 597.244,98.582 599.305,99.56C601.475,100.429 603.698,101.679 605.976,103.31C609.556,105.701 612.376,108.69 614.437,112.276C616.498,115.754 617.529,119.667 617.529,124.015C617.529,125.428 617.475,126.515 617.366,127.276C616.39,134.014 613.298,139.231 608.091,142.927C602.993,146.622 596.864,149.014 589.705,150.1C587.319,150.426 584.824,150.59 582.22,150.59C577.447,150.59 572.783,149.992 568.227,148.796C563.78,147.601 560.037,145.916 557,143.742C554.722,141.894 552.661,139.449 550.817,136.406L549.678,134.449L548.214,131.841C547.314,130.139 546.829,128.576 546.759,127.151C546.785,126.581 546.811,126.023 546.834,125.476ZM56.789,134.225C57.185,135.351 57.383,136.567 57.383,137.873C57.383,140.916 56.298,143.688 54.129,146.188C51.959,148.579 49.356,149.774 46.319,149.774C44.149,149.774 42.034,149.068 39.973,147.655C38.78,147.22 37.641,146.677 36.556,146.025L32.325,143.579C27.987,141.079 24.732,138.742 22.563,136.569C20.719,134.177 19.58,131.841 19.146,129.558C18.712,127.167 18.441,123.689 18.332,119.124L18.332,115.863C18.224,112.711 18.17,105.375 18.17,93.854C18.17,89.18 18.224,85.647 18.332,83.256L15.241,83.256C12.529,83.256 10.142,82.332 8.081,80.485C6.129,78.528 5.153,76.083 5.153,73.148C5.153,70.105 6.183,67.605 8.244,65.649C10.305,63.583 12.692,62.551 15.403,62.551L18.332,62.551L18.495,55.54L18.495,50.486C18.603,47.008 19.742,44.345 21.912,42.498C24.19,40.541 26.793,39.563 29.722,39.563C32.759,39.563 35.417,40.596 37.695,42.661C40.081,44.726 41.275,47.552 41.275,51.139L40.949,62.225L46.969,62.225C50.875,62.225 53.803,63.257 55.756,65.323C57.709,67.388 58.685,69.996 58.685,73.148C58.685,76.191 57.654,78.8 55.593,80.974C53.532,83.039 50.495,84.071 46.481,84.071L40.461,84.071C40.461,88.528 40.407,91.843 40.298,94.016C40.19,96.299 40.136,99.56 40.136,103.799C40.136,110.755 40.353,116.787 40.786,121.895C41.22,122.33 41.492,122.548 41.6,122.548L43.227,123.689L44.529,124.341L45.993,125.156L47.295,125.808C49.248,126.678 50.929,127.656 52.339,128.743C53.409,129.469 54.308,130.272 55.037,131.152C55.552,132.195 56.136,133.219 56.789,134.225ZM607.98,71.027C608.358,68.922 609.328,67.13 610.888,65.649C612.949,63.583 615.336,62.551 618.047,62.551L620.976,62.551L621.139,55.54L621.139,50.486C621.247,47.008 622.386,44.345 624.556,42.498C626.834,40.541 629.437,39.563 632.366,39.563C635.403,39.563 638.061,40.596 640.339,42.661C642.725,44.726 643.919,47.552 643.919,51.139L643.593,62.225L649.614,62.225C653.519,62.225 656.447,63.257 658.4,65.323C660.352,67.388 661.329,69.996 661.329,73.148C661.329,76.191 660.298,78.8 658.237,80.974C656.176,83.039 653.139,84.071 649.125,84.071L643.105,84.071C643.105,88.528 643.051,91.843 642.942,94.016C642.834,96.299 642.78,99.56 642.78,103.799C642.78,110.755 642.997,116.787 643.43,121.895C643.864,122.33 644.136,122.548 644.244,122.548L645.871,123.689L647.173,124.341L648.637,125.156L649.939,125.808C651.891,126.678 653.573,127.656 654.983,128.743C658.346,131.025 660.027,134.069 660.027,137.873C660.027,140.916 658.942,143.688 656.773,146.188C654.603,148.579 652,149.774 648.963,149.774C646.793,149.774 644.678,149.068 642.617,147.655C641.424,147.22 640.285,146.677 639.2,146.025L634.969,143.579C630.63,141.079 627.376,138.742 625.207,136.569C623.363,134.177 622.224,131.841 621.79,129.558C621.356,127.167 621.085,123.689 620.976,119.124L620.976,115.863C620.868,112.711 620.814,105.375 620.814,93.854C620.814,89.18 620.868,85.647 620.976,83.256L617.885,83.256C617.427,83.256 616.978,83.23 616.538,83.177C616.547,82.987 616.552,82.796 616.552,82.604C616.552,79.561 615.414,77.061 613.136,75.105C611.481,73.597 609.761,72.237 607.98,71.027ZM403.813,134.011C403.793,135.632 403.768,137.136 403.737,138.525C403.628,141.677 402.435,144.34 400.157,146.514C397.879,148.687 395.167,149.72 392.022,149.611C388.876,149.503 386.218,148.307 384.049,146.025C381.879,143.742 380.849,141.025 380.957,137.873C381.174,130.808 381.066,109.94 380.632,75.268C372.605,85.376 364.686,96.19 356.876,107.711C355.032,110.32 352.591,111.95 349.554,112.602C346.517,113.146 343.696,112.548 341.093,110.809C340.767,110.592 340.496,110.374 340.279,110.157C339.086,109.396 338.056,108.472 337.188,107.385L312.13,75.757C312.239,75.974 312.239,86.408 312.13,107.059L312.13,138.036C312.13,141.188 310.991,143.905 308.713,146.188C306.544,148.361 303.886,149.448 300.74,149.448C297.595,149.448 294.883,148.361 292.605,146.188C290.435,143.905 289.351,141.188 289.351,138.036L289.351,115.048C289.459,104.288 289.513,95.973 289.513,90.104C289.513,84.235 289.405,76.952 289.188,68.257C288.971,60.54 288.591,52.551 288.049,44.291C287.832,41.139 288.754,38.367 290.815,35.976C292.876,33.585 295.479,32.281 298.625,32.063C300.252,31.955 301.771,32.172 303.181,32.716C306.218,33.15 308.659,34.618 310.503,37.118L346.625,82.604C358.34,66.301 370.273,51.628 382.422,38.585C384.7,34.672 388.062,32.77 392.51,32.879C395.656,32.987 398.313,34.183 400.483,36.465C402.652,38.748 403.683,41.465 403.574,44.617C403.33,52.355 403.269,63.176 403.391,77.076C411.475,67.337 423.659,61.138 437.288,61.138C452.41,61.138 465.752,68.769 473.687,80.395C473.606,79.399 473.519,78.451 473.428,77.55C472.886,73.637 473.645,70.54 475.706,68.257C477.767,65.866 480.425,64.67 483.679,64.67C489.537,64.996 492.954,67.822 493.93,73.148C498.92,66.844 505.808,63.529 514.595,63.203C522.296,63.312 528.588,65.431 533.469,69.561C538.35,73.583 541.876,78.963 544.045,85.702C545.239,89.397 546.052,94.071 546.486,99.723C547.028,105.375 547.245,110.157 547.137,114.07C547.137,117.064 547.036,120.866 546.834,125.476C546.777,125.903 546.749,126.34 546.749,126.786C546.749,126.907 546.752,127.028 546.759,127.151C546.724,127.88 546.688,128.628 546.649,129.395C546.432,135.808 546.323,139.068 546.323,139.177C546.215,142.112 545.076,144.612 542.906,146.677C540.737,148.742 538.188,149.72 535.259,149.611C532.33,149.503 529.835,148.361 527.774,146.188C525.713,144.014 524.737,141.46 524.845,138.525C524.845,137.329 524.954,133.743 525.171,127.765C525.496,121.787 525.659,117.167 525.659,113.907C525.767,110.646 525.659,106.896 525.334,102.657C525.008,98.31 524.411,94.832 523.544,92.223C522.893,90.158 521.591,88.473 519.639,87.169C517.686,85.756 515.245,84.941 512.317,84.724C509.279,84.397 506.459,84.778 503.856,85.865C501.361,86.843 499.517,88.256 498.323,90.104C497.889,91.517 497.618,92.495 497.51,93.038L497.51,95.158C497.51,98.962 497.564,105.809 497.673,115.7C497.781,125.482 497.835,132.927 497.835,138.036C497.835,141.188 496.696,143.905 494.418,146.188C492.249,148.361 489.591,149.448 486.445,149.448C483.3,149.448 480.588,148.361 478.31,146.188C476.14,143.905 475.056,141.188 475.056,138.036C475.056,135.849 475.031,132.564 474.981,128.182C467.254,140.931 453.264,149.448 437.288,149.448C423.895,149.448 411.897,143.462 403.813,134.011ZM55.037,131.152C53.833,128.712 53.006,126.17 52.556,123.526C51.906,120.156 51.58,116.896 51.58,113.744C51.58,106.462 52.99,99.614 55.811,93.201C59.716,84.18 65.194,76.898 72.245,71.355C79.296,65.812 87.323,63.04 96.326,63.04C99.58,63.04 103.106,63.475 106.902,64.344C109.397,64.996 111.838,66.138 114.224,67.768L115.038,67.768L116.665,67.605C119.377,67.605 121.763,68.583 123.824,70.54C125.994,72.496 127.241,74.887 127.567,77.713L128.706,88.963C128.923,93.745 129.194,101.897 129.519,113.418L129.845,122.222C130.062,127.656 130.17,131.243 130.17,132.982C130.279,134.612 130.224,136.188 130.007,137.71C129.574,140.862 128.38,143.579 126.428,145.862C124.584,148.035 122.143,149.177 119.106,149.285C116.611,149.394 114.333,148.796 112.272,147.492C110.319,146.079 108.909,143.579 108.041,139.992C105.546,143.036 102.509,145.264 98.93,146.677C94.699,148.416 90.469,149.394 86.238,149.611C82.333,149.611 78.102,148.85 73.547,147.329C67.906,145.155 63.187,141.949 59.39,137.71C58.427,136.574 57.56,135.413 56.789,134.225C56.398,133.113 55.814,132.089 55.037,131.152ZM741.634,146.025C739.356,143.851 738.217,141.242 738.217,138.199C738.108,127.439 738.054,118.961 738.054,112.766C737.837,111.461 737.837,110.211 738.054,109.016C737.946,96.951 737.891,86.028 737.891,76.246C737.891,72.007 738.976,68.801 741.146,66.627C743.424,64.344 746.135,63.203 749.281,63.203C751.559,63.203 753.62,63.855 755.464,65.159C757.417,66.355 758.827,68.529 759.695,71.681C764.034,69.29 770.542,66.572 779.22,63.529C782.041,62.551 784.753,62.714 787.356,64.018C790.068,65.214 791.912,67.225 792.888,70.051C793.864,72.876 793.702,75.648 792.4,78.365C791.207,80.974 789.2,82.767 786.38,83.745C776.4,87.223 767.885,90.647 760.834,94.016C760.4,97.495 760.346,102.44 760.671,108.853C760.78,115.7 760.888,125.374 760.997,137.873C760.997,141.025 759.858,143.742 757.58,146.025C755.41,148.307 752.753,149.448 749.607,149.448C746.569,149.448 743.912,148.307 741.634,146.025ZM146.151,149.285C143.005,149.177 140.348,147.981 138.178,145.698C136.009,143.307 134.978,140.59 135.087,137.547C135.738,118.309 135.792,87.06 135.25,43.802C135.25,40.65 136.334,37.987 138.504,35.813C140.673,33.531 143.331,32.389 146.477,32.389C149.622,32.281 152.28,33.313 154.45,35.487C156.727,37.661 157.921,40.324 158.029,43.476L158.029,54.073C158.138,59.399 158.192,63.257 158.192,65.649L160.47,64.67C167.412,62.17 173.866,61.355 179.833,62.225C185.69,63.094 191.114,65.431 196.104,69.235C204.782,75.757 210.639,85.05 213.677,97.114C216.822,108.309 216.063,118.798 211.399,128.58C208.687,134.232 204.782,138.851 199.683,142.438C194.585,146.025 188.456,148.198 181.297,148.959C172.077,150.046 163.941,148.742 156.89,145.046L154.938,143.742C152.551,147.546 149.622,149.394 146.151,149.285ZM437.288,134.73C453.513,134.73 466.667,121.55 466.667,105.293C466.667,89.035 453.513,75.856 437.288,75.856C421.063,75.856 407.909,89.035 407.909,105.293C407.909,121.55 421.063,134.73 437.288,134.73ZM86.401,126.623C89.655,126.623 93.018,125.591 96.489,123.526C97.357,122.982 98.333,122.167 99.418,121.08L101.858,118.798L104.624,114.885C105.275,114.124 106.035,113.581 106.902,113.255C106.902,104.125 106.631,96.408 106.089,90.104L104.462,88.963L102.184,87.169L100.719,86.191C98.984,85.756 97.628,85.539 96.652,85.539C92.747,85.539 88.95,87.06 85.262,90.104C81.682,93.147 78.808,97.386 76.638,102.82C74.902,107.059 74.035,110.863 74.035,114.233C74.035,117.167 74.686,119.613 75.987,121.569C77.397,123.526 79.35,124.939 81.845,125.808C83.472,126.352 84.991,126.623 86.401,126.623ZM179.019,126.46C184.768,125.808 188.727,123.254 190.897,118.798C193.175,113.907 193.446,108.581 191.711,102.82C189.975,95.864 186.883,90.702 182.436,87.332C178.422,84.397 173.921,83.908 168.931,85.865C168.172,86.191 166.056,87.55 162.585,89.941C160.633,91.571 159.331,93.256 158.68,94.995L158.517,95.158C158.517,102.549 158.463,108.853 158.355,114.07C159.439,115.265 160.578,116.678 161.772,118.309L164.538,121.895C165.839,123.526 166.87,124.504 167.629,124.83C170.45,126.352 174.246,126.895 179.019,126.46ZM677.655,98.255C684.054,99.125 691.159,99.451 698.969,99.234C706.454,99.125 711.932,98.636 715.403,97.766C715.186,93.093 713.776,89.343 711.173,86.517C708.678,83.691 704.122,82.332 697.505,82.441C691.973,82.55 687.471,83.8 684,86.191C680.529,88.582 678.414,92.604 677.655,98.255Z" style="fill-rule:nonzero;stroke:white;stroke-width:1px;"/>
    <path d="M437.288,149.448C461.627,149.448 481.356,129.68 481.356,105.293C481.356,80.906 461.627,61.138 437.288,61.138C412.95,61.138 393.22,80.906 393.22,105.293C393.22,129.68 412.95,149.448 437.288,149.448ZM437.288,134.73C453.513,134.73 466.667,121.55 466.667,105.293C466.667,89.035 453.513,75.856 437.288,75.856C421.063,75.856 407.909,89.035 407.909,105.293C407.909,121.55 421.063,134.73 437.288,134.73Z" style="fill:rgb(32,138,94);"/>
    <path d="M46.319,149.774C44.149,149.774 42.034,149.068 39.973,147.655C38.78,147.22 37.641,146.677 36.556,146.025L32.325,143.579C27.987,141.079 24.732,138.742 22.563,136.569C20.719,134.177 19.58,131.841 19.146,129.558C18.712,127.167 18.441,123.689 18.332,119.124L18.332,115.863C18.224,112.711 18.17,105.375 18.17,93.854C18.17,89.18 18.224,85.647 18.332,83.256L15.241,83.256C12.529,83.256 10.142,82.332 8.081,80.485C6.129,78.528 5.153,76.083 5.153,73.148C5.153,70.105 6.183,67.605 8.244,65.649C10.305,63.583 12.692,62.551 15.403,62.551L18.332,62.551L18.495,55.54L18.495,50.486C18.603,47.008 19.742,44.345 21.912,42.498C24.19,40.541 26.793,39.563 29.722,39.563C32.759,39.563 35.417,40.596 37.695,42.661C40.081,44.726 41.275,47.552 41.275,51.139L40.949,62.225L46.969,62.225C50.875,62.225 53.803,63.257 55.756,65.323C57.709,67.388 58.685,69.996 58.685,73.148C58.685,76.191 57.654,78.8 55.593,80.974C53.532,83.039 50.495,84.071 46.481,84.071L40.461,84.071C40.461,88.528 40.407,91.843 40.298,94.016C40.19,96.299 40.136,99.56 40.136,103.799C40.136,110.755 40.353,116.787 40.786,121.895C41.22,122.33 41.492,122.548 41.6,122.548L43.227,123.689L44.529,124.341L45.993,125.156L47.295,125.808C49.248,126.678 50.929,127.656 52.339,128.743C55.702,131.025 57.383,134.069 57.383,137.873C57.383,140.916 56.298,143.688 54.129,146.188C51.959,148.579 49.356,149.774 46.319,149.774ZM86.238,149.611C82.333,149.611 78.102,148.85 73.547,147.329C67.906,145.155 63.187,141.949 59.39,137.71C55.702,133.362 53.424,128.634 52.556,123.526C51.906,120.156 51.58,116.896 51.58,113.744C51.58,106.462 52.99,99.614 55.811,93.201C59.716,84.18 65.194,76.898 72.245,71.355C79.296,65.812 87.323,63.04 96.326,63.04C99.58,63.04 103.106,63.475 106.902,64.344C109.397,64.996 111.838,66.138 114.224,67.768L115.038,67.768L116.665,67.605C119.377,67.605 121.763,68.583 123.824,70.54C125.994,72.496 127.241,74.887 127.567,77.713L128.706,88.963C128.923,93.745 129.194,101.897 129.519,113.418L129.845,122.222C130.062,127.656 130.17,131.243 130.17,132.982C130.279,134.612 130.224,136.188 130.007,137.71C129.574,140.862 128.38,143.579 126.428,145.862C124.584,148.035 122.143,149.177 119.106,149.285C116.611,149.394 114.333,148.796 112.272,147.492C110.319,146.079 108.909,143.579 108.041,139.992C105.546,143.036 102.509,145.264 98.93,146.677C94.699,148.416 90.469,149.394 86.238,149.611ZM86.401,126.623C89.655,126.623 93.018,125.591 96.489,123.526C97.357,122.982 98.333,122.167 99.418,121.08L101.858,118.798L104.624,114.885C105.275,114.124 106.035,113.581 106.902,113.255C106.902,104.125 106.631,96.408 106.089,90.104L104.462,88.963L102.184,87.169L100.719,86.191C98.984,85.756 97.628,85.539 96.652,85.539C92.747,85.539 88.95,87.06 85.262,90.104C81.682,93.147 78.808,97.386 76.638,102.82C74.902,107.059 74.035,110.863 74.035,114.233C74.035,117.167 74.686,119.613 75.987,121.569C77.397,123.526 79.35,124.939 81.845,125.808C83.472,126.352 84.991,126.623 86.401,126.623ZM146.151,149.285C143.005,149.177 140.348,147.981 138.178,145.698C136.009,143.307 134.978,140.59 135.087,137.547C135.738,118.309 135.792,87.06 135.25,43.802C135.25,40.65 136.334,37.987 138.504,35.813C140.673,33.531 143.331,32.389 146.477,32.389C149.622,32.281 152.28,33.313 154.45,35.487C156.727,37.661 157.921,40.324 158.029,43.476L158.029,54.073C158.138,59.399 158.192,63.257 158.192,65.649L160.47,64.67C167.412,62.17 173.866,61.355 179.833,62.225C185.69,63.094 191.114,65.431 196.104,69.235C204.782,75.757 210.639,85.05 213.677,97.114C216.822,108.309 216.063,118.798 211.399,128.58C208.687,134.232 204.782,138.851 199.683,142.438C194.585,146.025 188.456,148.198 181.297,148.959C172.077,150.046 163.941,148.742 156.89,145.046L154.938,143.742C152.551,147.546 149.622,149.394 146.151,149.285ZM179.019,126.46C184.768,125.808 188.727,123.254 190.897,118.798C193.175,113.907 193.446,108.581 191.711,102.82C189.975,95.864 186.883,90.702 182.436,87.332C178.422,84.397 173.921,83.908 168.931,85.865C168.172,86.191 166.056,87.55 162.585,89.941C160.633,91.571 159.331,93.256 158.68,94.995L158.517,95.158C158.517,102.549 158.463,108.853 158.355,114.07C159.439,115.265 160.578,116.678 161.772,118.309L164.538,121.895C165.839,123.526 166.87,124.504 167.629,124.83C170.45,126.352 174.246,126.895 179.019,126.46ZM248.642,150.59C243.869,150.59 239.205,149.992 234.649,148.796C230.201,147.601 226.459,145.916 223.422,143.742C221.144,141.894 219.083,139.449 217.239,136.406L216.1,134.449L214.635,131.841C213.659,129.993 213.171,128.308 213.171,126.786C213.171,123.961 214.31,121.515 216.588,119.45C218.974,117.276 221.632,116.189 224.561,116.189C228.249,116.189 231.178,117.82 233.347,121.08L235.3,124.341L236.276,126.297C236.927,127.602 238.174,128.634 240.018,129.395C242.839,130.265 245.279,130.699 247.34,130.699C248.859,130.699 250.757,130.536 253.035,130.21C258.784,129.015 261.767,127.221 261.984,124.83L261.984,124.178C261.984,122.874 261.388,121.624 260.195,120.428C258.784,119.124 255.53,117.439 250.432,115.374L243.273,112.602C239.259,111.19 236.384,110.048 234.649,109.179C226.73,105.701 221.578,101.462 219.191,96.462C217.564,93.201 216.751,89.995 216.751,86.843C216.751,84.235 217.293,81.789 218.378,79.507C220.547,74.181 225.591,69.887 233.51,66.627C238.717,64.562 244.086,63.529 249.618,63.529C250.703,63.529 252.33,63.638 254.5,63.855C264.045,64.833 272.398,68.583 279.557,75.105C281.835,77.061 282.974,79.561 282.974,82.604C282.974,85.43 281.944,87.984 279.883,90.267C277.93,92.549 275.49,93.691 272.561,93.691C270.283,93.691 268.005,92.93 265.727,91.408L261.822,88.473C259.978,87.169 258.622,86.354 257.754,86.028C254.5,84.941 251.408,84.397 248.479,84.397C245.767,84.397 243.435,84.669 241.483,85.213C240.073,85.756 239.367,86.517 239.367,87.495C239.367,88.147 239.693,88.691 240.344,89.126C241.103,89.56 242.296,90.158 243.923,90.919C245.876,91.788 248.696,92.821 252.384,94.016C254.879,94.777 257.428,95.756 260.032,96.951C261.767,97.712 263.666,98.582 265.727,99.56C267.896,100.429 270.12,101.679 272.398,103.31C275.978,105.701 278.798,108.69 280.859,112.276C282.92,115.754 283.951,119.667 283.951,124.015C283.951,125.428 283.896,126.515 283.788,127.276C282.812,134.014 279.72,139.231 274.513,142.927C269.415,146.622 263.286,149.014 256.127,150.1C253.74,150.426 251.245,150.59 248.642,150.59ZM403.737,138.525C403.628,141.677 402.435,144.34 400.157,146.514C397.879,148.687 395.167,149.72 392.022,149.611C388.876,149.503 386.218,148.307 384.049,146.025C381.879,143.742 380.849,141.025 380.957,137.873C381.174,130.808 381.066,109.94 380.632,75.268C372.605,85.376 364.686,96.19 356.876,107.711C355.032,110.32 352.591,111.95 349.554,112.602C346.517,113.146 343.696,112.548 341.093,110.809C340.767,110.592 340.496,110.374 340.279,110.157C339.086,109.396 338.056,108.472 337.188,107.385L312.13,75.757C312.239,75.974 312.239,86.408 312.13,107.059L312.13,138.036C312.13,141.188 310.991,143.905 308.713,146.188C306.544,148.361 303.886,149.448 300.74,149.448C297.595,149.448 294.883,148.361 292.605,146.188C290.435,143.905 289.351,141.188 289.351,138.036L289.351,115.048C289.459,104.288 289.513,95.973 289.513,90.104C289.513,84.235 289.405,76.952 289.188,68.257C288.971,60.54 288.591,52.551 288.049,44.291C287.832,41.139 288.754,38.367 290.815,35.976C292.876,33.585 295.479,32.281 298.625,32.063C300.252,31.955 301.771,32.172 303.181,32.716C306.218,33.15 308.659,34.618 310.503,37.118L346.625,82.604C358.34,66.301 370.273,51.628 382.422,38.585C384.7,34.672 388.062,32.77 392.51,32.879C395.656,32.987 398.313,34.183 400.483,36.465C402.652,38.748 403.683,41.465 403.574,44.617C403.249,54.943 403.249,70.757 403.574,92.06C403.9,113.255 403.954,128.743 403.737,138.525ZM546.323,139.177C546.215,142.112 545.076,144.612 542.906,146.677C540.737,148.742 538.188,149.72 535.259,149.611C532.33,149.503 529.835,148.361 527.774,146.188C525.713,144.014 524.737,141.46 524.845,138.525C524.845,137.329 524.954,133.743 525.171,127.765C525.496,121.787 525.659,117.167 525.659,113.907C525.767,110.646 525.659,106.896 525.334,102.657C525.008,98.31 524.411,94.832 523.544,92.223C522.893,90.158 521.591,88.473 519.639,87.169C517.686,85.756 515.245,84.941 512.317,84.724C509.279,84.397 506.459,84.778 503.856,85.865C501.361,86.843 499.517,88.256 498.323,90.104C497.889,91.517 497.618,92.495 497.51,93.038L497.51,95.158C497.51,98.962 497.564,105.809 497.673,115.7C497.781,125.482 497.835,132.927 497.835,138.036C497.835,141.188 496.696,143.905 494.418,146.188C492.249,148.361 489.591,149.448 486.445,149.448C483.3,149.448 480.588,148.361 478.31,146.188C476.14,143.905 475.056,141.188 475.056,138.036C475.056,133.471 474.947,124.124 474.73,109.994C474.622,95.864 474.188,85.05 473.428,77.55C472.886,73.637 473.645,70.54 475.706,68.257C477.767,65.866 480.425,64.67 483.679,64.67C489.537,64.996 492.954,67.822 493.93,73.148C498.92,66.844 505.808,63.529 514.595,63.203C522.296,63.312 528.588,65.431 533.469,69.561C538.35,73.583 541.876,78.963 544.045,85.702C545.239,89.397 546.052,94.071 546.486,99.723C547.028,105.375 547.245,110.157 547.137,114.07C547.137,117.874 546.974,122.982 546.649,129.395C546.432,135.808 546.323,139.068 546.323,139.177ZM582.22,150.59C577.447,150.59 572.783,149.992 568.227,148.796C563.78,147.601 560.037,145.916 557,143.742C554.722,141.894 552.661,139.449 550.817,136.406L549.678,134.449L548.214,131.841C547.237,129.993 546.749,128.308 546.749,126.786C546.749,123.961 547.888,121.515 550.166,119.45C552.552,117.276 555.21,116.189 558.139,116.189C561.827,116.189 564.756,117.82 566.925,121.08L568.878,124.341L569.854,126.297C570.505,127.602 571.753,128.634 573.597,129.395C576.417,130.265 578.858,130.699 580.919,130.699C582.437,130.699 584.336,130.536 586.614,130.21C592.363,129.015 595.346,127.221 595.563,124.83L595.563,124.178C595.563,122.874 594.966,121.624 593.773,120.428C592.363,119.124 589.108,117.439 584.01,115.374L576.851,112.602C572.837,111.19 569.963,110.048 568.227,109.179C560.308,105.701 555.156,101.462 552.769,96.462C551.142,93.201 550.329,89.995 550.329,86.843C550.329,84.235 550.871,81.789 551.956,79.507C554.125,74.181 559.169,69.887 567.088,66.627C572.295,64.562 577.664,63.529 583.197,63.529C584.281,63.529 585.908,63.638 588.078,63.855C597.624,64.833 605.976,68.583 613.136,75.105C615.414,77.061 616.552,79.561 616.552,82.604C616.552,85.43 615.522,87.984 613.461,90.267C611.508,92.549 609.068,93.691 606.139,93.691C603.861,93.691 601.583,92.93 599.305,91.408L595.4,88.473C593.556,87.169 592.2,86.354 591.332,86.028C588.078,84.941 584.986,84.397 582.058,84.397C579.346,84.397 577.014,84.669 575.061,85.213C573.651,85.756 572.946,86.517 572.946,87.495C572.946,88.147 573.271,88.691 573.922,89.126C574.681,89.56 575.875,90.158 577.502,90.919C579.454,91.788 582.275,92.821 585.963,94.016C588.458,94.777 591.007,95.756 593.61,96.951C595.346,97.712 597.244,98.582 599.305,99.56C601.475,100.429 603.698,101.679 605.976,103.31C609.556,105.701 612.376,108.69 614.437,112.276C616.498,115.754 617.529,119.667 617.529,124.015C617.529,125.428 617.475,126.515 617.366,127.276C616.39,134.014 613.298,139.231 608.091,142.927C602.993,146.622 596.864,149.014 589.705,150.1C587.319,150.426 584.824,150.59 582.22,150.59ZM648.963,149.774C646.793,149.774 644.678,149.068 642.617,147.655C641.424,147.22 640.285,146.677 639.2,146.025L634.969,143.579C630.63,141.079 627.376,138.742 625.207,136.569C623.363,134.177 622.224,131.841 621.79,129.558C621.356,127.167 621.085,123.689 620.976,119.124L620.976,115.863C620.868,112.711 620.814,105.375 620.814,93.854C620.814,89.18 620.868,85.647 620.976,83.256L617.885,83.256C615.173,83.256 612.786,82.332 610.725,80.485C608.773,78.528 607.797,76.083 607.797,73.148C607.797,70.105 608.827,67.605 610.888,65.649C612.949,63.583 615.336,62.551 618.047,62.551L620.976,62.551L621.139,55.54L621.139,50.486C621.247,47.008 622.386,44.345 624.556,42.498C626.834,40.541 629.437,39.563 632.366,39.563C635.403,39.563 638.061,40.596 640.339,42.661C642.725,44.726 643.919,47.552 643.919,51.139L643.593,62.225L649.614,62.225C653.519,62.225 656.447,63.257 658.4,65.323C660.352,67.388 661.329,69.996 661.329,73.148C661.329,76.191 660.298,78.8 658.237,80.974C656.176,83.039 653.139,84.071 649.125,84.071L643.105,84.071C643.105,88.528 643.051,91.843 642.942,94.016C642.834,96.299 642.78,99.56 642.78,103.799C642.78,110.755 642.997,116.787 643.43,121.895C643.864,122.33 644.136,122.548 644.244,122.548L645.871,123.689L647.173,124.341L648.637,125.156L649.939,125.808C651.891,126.678 653.573,127.656 654.983,128.743C658.346,131.025 660.027,134.069 660.027,137.873C660.027,140.916 658.942,143.688 656.773,146.188C654.603,148.579 652,149.774 648.963,149.774ZM697.668,150.916C688.99,150.916 681.397,149.068 674.889,145.372C668.38,141.677 663.39,136.732 659.919,130.536C656.557,124.341 654.875,117.494 654.875,109.994C654.875,100.538 656.611,92.386 660.082,85.539C663.553,78.583 668.543,73.094 675.051,69.072C681.559,65.051 688.936,63.04 697.18,63.04C705.641,63.04 712.854,64.779 718.82,68.257C724.895,71.735 729.451,76.463 732.488,82.441C735.525,88.31 737.044,94.886 737.044,102.168C737.044,105.864 735.851,108.744 733.464,110.809C731.078,112.874 727.878,114.07 723.864,114.396C715.729,115.157 708.515,115.537 702.224,115.537C696.258,115.537 689.858,115.374 683.024,115.048L677.329,114.885C677.98,120.211 680.041,124.395 683.512,127.439C687.091,130.373 692.461,131.732 699.62,131.514C702.875,131.406 705.478,131.025 707.43,130.373C709.383,129.612 711.119,128.526 712.637,127.113C713.505,126.243 714.427,125.319 715.403,124.341C716.38,123.363 717.464,122.602 718.658,122.058C719.851,121.515 721.315,121.243 723.051,121.243C725.871,121.243 728.203,122.222 730.047,124.178C732,126.026 732.976,128.199 732.976,130.699C732.976,134.177 731.241,137.492 727.769,140.644C724.298,143.796 719.797,146.296 714.264,148.144C708.841,149.992 703.308,150.916 697.668,150.916ZM677.655,98.255C684.054,99.125 691.159,99.451 698.969,99.234C706.454,99.125 711.932,98.636 715.403,97.766C715.186,93.093 713.776,89.343 711.173,86.517C708.678,83.691 704.122,82.332 697.505,82.441C691.973,82.55 687.471,83.8 684,86.191C680.529,88.582 678.414,92.604 677.655,98.255ZM741.634,146.025C739.356,143.851 738.217,141.242 738.217,138.199C738.108,127.439 738.054,118.961 738.054,112.766C737.837,111.461 737.837,110.211 738.054,109.016C737.946,96.951 737.891,86.028 737.891,76.246C737.891,72.007 738.976,68.801 741.146,66.627C743.424,64.344 746.135,63.203 749.281,63.203C751.559,63.203 753.62,63.855 755.464,65.159C757.417,66.355 758.827,68.529 759.695,71.681C764.034,69.29 770.542,66.572 779.22,63.529C782.041,62.551 784.753,62.714 787.356,64.018C790.068,65.214 791.912,67.225 792.888,70.051C793.864,72.876 793.702,75.648 792.4,78.365C791.207,80.974 789.2,82.767 786.38,83.745C776.4,87.223 767.885,90.647 760.834,94.016C760.4,97.495 760.346,102.44 760.671,108.853C760.78,115.7 760.888,125.374 760.997,137.873C760.997,141.025 759.858,143.742 757.58,146.025C755.41,148.307 752.753,149.448 749.607,149.448C746.569,149.448 743.912,148.307 741.634,146.025Z" style="fill-rule:nonzero;"/>
    <g transform="matrix(5.12189,0,0,5.12189,-1854.35,-451.008)">
        <path d="M447.458,115.483C451.202,115.483 454.237,112.441 454.237,108.69C454.237,104.938 451.202,101.897 447.458,101.897C443.714,101.897 440.678,104.938 440.678,108.69C440.678,112.441 443.714,115.483 447.458,115.483Z" style="fill:white;fill-rule:nonzero;"/>
    </g>
    <path d="M437.288,149.448C461.627,149.448 481.356,129.68 481.356,105.293C481.356,80.906 461.627,61.138 437.288,61.138C412.95,61.138 393.22,80.906 393.22,105.293C393.22,129.68 412.95,149.448 437.288,149.448ZM437.288,134.73C453.513,134.73 466.667,121.55 466.667,105.293C466.667,89.035 453.513,75.856 437.288,75.856C421.063,75.856 407.909,89.035 407.909,105.293C407.909,121.55 421.063,134.73 437.288,134.73Z" style="fill:rgb(32,138,94);"/>
    <path d="M444.068,129.069C453.429,129.069 461.017,121.466 461.017,112.086C461.017,102.707 453.429,95.104 444.068,95.104C434.707,95.104 427.119,102.707 427.119,112.086C427.119,121.466 434.707,129.069 444.068,129.069Z" style="fill:rgb(6,5,5);fill-rule:nonzero;"/>
    <path d="M447.458,115.483C451.202,115.483 454.237,112.441 454.237,108.69C454.237,104.938 451.202,101.897 447.458,101.897C443.714,101.897 440.678,104.938 440.678,108.69C440.678,112.441 443.714,115.483 447.458,115.483Z" style="fill:white;fill-rule:nonzero;"/>
</svg>
